<mxfile host="app.diagrams.net" agent="Mozilla/5.0 (Macintosh; Intel Mac OS X 10_15_7) AppleWebKit/537.36 (KHTML, like Gecko) Chrome/135.0.0.0 Safari/537.36" version="26.2.12">
  <diagram name="Page-1" id="3qirsLyn6Tf33gdYKexy">
    <mxGraphModel dx="1300" dy="864" grid="1" gridSize="10" guides="1" tooltips="1" connect="1" arrows="1" fold="1" page="1" pageScale="1" pageWidth="850" pageHeight="1100" math="0" shadow="0">
      <root>
        <mxCell id="0" />
        <mxCell id="1" parent="0" />
        <mxCell id="7Bn_i4xmb7pETKimLmk4-2" value="user I/O" style="shape=umlBoundary;whiteSpace=wrap;html=1;" parent="1" vertex="1">
          <mxGeometry x="305" y="65" width="100" height="80" as="geometry" />
        </mxCell>
        <mxCell id="7Bn_i4xmb7pETKimLmk4-3" value="submit&lt;br&gt;&lt;div&gt;controller&lt;/div&gt;" style="ellipse;shape=umlControl;whiteSpace=wrap;html=1;" parent="1" vertex="1">
          <mxGeometry x="440" y="60" width="80" height="90" as="geometry" />
        </mxCell>
        <mxCell id="7Bn_i4xmb7pETKimLmk4-6" value="" style="line;strokeWidth=1;fillColor=none;align=left;verticalAlign=middle;spacingTop=-1;spacingLeft=3;spacingRight=3;rotatable=0;labelPosition=right;points=[];portConstraint=eastwest;strokeColor=inherit;" parent="1" vertex="1">
          <mxGeometry x="40" y="155" width="760" height="8" as="geometry" />
        </mxCell>
        <mxCell id="7Bn_i4xmb7pETKimLmk4-11" value="" style="endArrow=none;html=1;rounded=0;" parent="1" edge="1">
          <mxGeometry width="50" height="50" relative="1" as="geometry">
            <mxPoint x="120" y="600" as="sourcePoint" />
            <mxPoint x="120" y="160" as="targetPoint" />
          </mxGeometry>
        </mxCell>
        <mxCell id="7Bn_i4xmb7pETKimLmk4-12" value="" style="endArrow=none;html=1;rounded=0;" parent="1" edge="1">
          <mxGeometry width="50" height="50" relative="1" as="geometry">
            <mxPoint x="240" y="600" as="sourcePoint" />
            <mxPoint x="240" y="160" as="targetPoint" />
          </mxGeometry>
        </mxCell>
        <mxCell id="7Bn_i4xmb7pETKimLmk4-14" value="1. login" style="text;html=1;align=center;verticalAlign=middle;resizable=0;points=[];autosize=1;strokeColor=none;fillColor=none;" parent="1" vertex="1">
          <mxGeometry x="145" y="170" width="60" height="30" as="geometry" />
        </mxCell>
        <mxCell id="7Bn_i4xmb7pETKimLmk4-15" value="" style="endArrow=classic;html=1;rounded=0;" parent="1" edge="1">
          <mxGeometry width="50" height="50" relative="1" as="geometry">
            <mxPoint x="120" y="200" as="sourcePoint" />
            <mxPoint x="240" y="200" as="targetPoint" />
          </mxGeometry>
        </mxCell>
        <mxCell id="7Bn_i4xmb7pETKimLmk4-17" value="" style="endArrow=none;html=1;rounded=0;" parent="1" edge="1">
          <mxGeometry width="50" height="50" relative="1" as="geometry">
            <mxPoint x="360" y="600" as="sourcePoint" />
            <mxPoint x="359.5" y="160" as="targetPoint" />
          </mxGeometry>
        </mxCell>
        <mxCell id="7Bn_i4xmb7pETKimLmk4-18" value="" style="endArrow=classic;html=1;rounded=0;" parent="1" edge="1">
          <mxGeometry width="50" height="50" relative="1" as="geometry">
            <mxPoint x="240" y="280" as="sourcePoint" />
            <mxPoint x="360" y="280" as="targetPoint" />
          </mxGeometry>
        </mxCell>
        <mxCell id="7Bn_i4xmb7pETKimLmk4-19" value="2. input texts" style="text;html=1;align=center;verticalAlign=middle;resizable=0;points=[];autosize=1;strokeColor=none;fillColor=none;" parent="1" vertex="1">
          <mxGeometry x="255" y="210" width="90" height="30" as="geometry" />
        </mxCell>
        <mxCell id="7Bn_i4xmb7pETKimLmk4-21" value="" style="endArrow=none;html=1;rounded=0;" parent="1" edge="1">
          <mxGeometry width="50" height="50" relative="1" as="geometry">
            <mxPoint x="480" y="600" as="sourcePoint" />
            <mxPoint x="479.5" y="160" as="targetPoint" />
          </mxGeometry>
        </mxCell>
        <mxCell id="7Bn_i4xmb7pETKimLmk4-22" value="" style="endArrow=classic;html=1;rounded=0;" parent="1" edge="1">
          <mxGeometry width="50" height="50" relative="1" as="geometry">
            <mxPoint x="240" y="240" as="sourcePoint" />
            <mxPoint x="360" y="240" as="targetPoint" />
          </mxGeometry>
        </mxCell>
        <mxCell id="7Bn_i4xmb7pETKimLmk4-23" value="4. submit" style="text;html=1;align=center;verticalAlign=middle;resizable=0;points=[];autosize=1;strokeColor=none;fillColor=none;" parent="1" vertex="1">
          <mxGeometry x="380" y="290" width="70" height="30" as="geometry" />
        </mxCell>
        <mxCell id="7Bn_i4xmb7pETKimLmk4-24" value="count words&lt;br&gt;&lt;div&gt;controller&lt;/div&gt;" style="ellipse;shape=umlControl;whiteSpace=wrap;html=1;" parent="1" vertex="1">
          <mxGeometry x="560" y="60" width="80" height="90" as="geometry" />
        </mxCell>
        <mxCell id="7Bn_i4xmb7pETKimLmk4-25" value="" style="endArrow=none;html=1;rounded=0;" parent="1" edge="1">
          <mxGeometry width="50" height="50" relative="1" as="geometry">
            <mxPoint x="600" y="600" as="sourcePoint" />
            <mxPoint x="599.5" y="159" as="targetPoint" />
          </mxGeometry>
        </mxCell>
        <mxCell id="7Bn_i4xmb7pETKimLmk4-26" value="" style="endArrow=classic;html=1;rounded=0;" parent="1" edge="1">
          <mxGeometry width="50" height="50" relative="1" as="geometry">
            <mxPoint x="480" y="360" as="sourcePoint" />
            <mxPoint x="600" y="360" as="targetPoint" />
          </mxGeometry>
        </mxCell>
        <mxCell id="7Bn_i4xmb7pETKimLmk4-27" value="5. count" style="text;html=1;align=center;verticalAlign=middle;resizable=0;points=[];autosize=1;strokeColor=none;fillColor=none;" parent="1" vertex="1">
          <mxGeometry x="510" y="330" width="70" height="30" as="geometry" />
        </mxCell>
        <mxCell id="7Bn_i4xmb7pETKimLmk4-29" value="" style="endArrow=none;html=1;rounded=0;" parent="1" edge="1">
          <mxGeometry width="50" height="50" relative="1" as="geometry">
            <mxPoint x="720" y="600" as="sourcePoint" />
            <mxPoint x="719.5" y="160" as="targetPoint" />
          </mxGeometry>
        </mxCell>
        <mxCell id="7Bn_i4xmb7pETKimLmk4-32" value="" style="endArrow=classic;html=1;rounded=0;" parent="1" edge="1">
          <mxGeometry width="50" height="50" relative="1" as="geometry">
            <mxPoint x="720" y="440" as="sourcePoint" />
            <mxPoint x="480" y="440" as="targetPoint" />
          </mxGeometry>
        </mxCell>
        <mxCell id="7Bn_i4xmb7pETKimLmk4-33" value="7. check if paid user #tokens &amp;lt; #words" style="text;html=1;align=center;verticalAlign=middle;resizable=0;points=[];autosize=1;strokeColor=none;fillColor=none;" parent="1" vertex="1">
          <mxGeometry x="485" y="410" width="230" height="30" as="geometry" />
        </mxCell>
        <mxCell id="7Bn_i4xmb7pETKimLmk4-35" value="token DB" style="ellipse;shape=umlEntity;whiteSpace=wrap;html=1;" parent="1" vertex="1">
          <mxGeometry x="680" y="70" width="80" height="80" as="geometry" />
        </mxCell>
        <mxCell id="cYkkiroFD4x7zm8JULmi-1" value="&lt;font style=&quot;font-size: 22px;&quot;&gt;&lt;b&gt;Text Submission&lt;/b&gt;&lt;/font&gt;" style="text;html=1;align=center;verticalAlign=middle;resizable=0;points=[];autosize=1;strokeColor=none;fillColor=none;" parent="1" vertex="1">
          <mxGeometry x="40" width="200" height="40" as="geometry" />
        </mxCell>
        <mxCell id="cYkkiroFD4x7zm8JULmi-37" value="free/paid user" style="shape=umlActor;verticalLabelPosition=bottom;verticalAlign=top;html=1;" parent="1" vertex="1">
          <mxGeometry x="100" y="710" width="30" height="60" as="geometry" />
        </mxCell>
        <mxCell id="cYkkiroFD4x7zm8JULmi-38" value="user interface" style="shape=umlBoundary;whiteSpace=wrap;html=1;" parent="1" vertex="1">
          <mxGeometry x="180" y="710" width="100" height="80" as="geometry" />
        </mxCell>
        <mxCell id="cYkkiroFD4x7zm8JULmi-39" value="review word&lt;div&gt;controller&lt;/div&gt;" style="ellipse;shape=umlControl;whiteSpace=wrap;html=1;" parent="1" vertex="1">
          <mxGeometry x="320" y="700" width="80" height="90" as="geometry" />
        </mxCell>
        <mxCell id="cYkkiroFD4x7zm8JULmi-40" value="blacklist DB" style="ellipse;shape=umlEntity;whiteSpace=wrap;html=1;" parent="1" vertex="1">
          <mxGeometry x="440" y="710" width="80" height="80" as="geometry" />
        </mxCell>
        <mxCell id="cYkkiroFD4x7zm8JULmi-41" value="" style="line;strokeWidth=1;fillColor=none;align=left;verticalAlign=middle;spacingTop=-1;spacingLeft=3;spacingRight=3;rotatable=0;labelPosition=right;points=[];portConstraint=eastwest;strokeColor=inherit;" parent="1" vertex="1">
          <mxGeometry x="40" y="795" width="880" height="8" as="geometry" />
        </mxCell>
        <mxCell id="cYkkiroFD4x7zm8JULmi-42" value="" style="endArrow=none;html=1;rounded=0;" parent="1" edge="1">
          <mxGeometry width="50" height="50" relative="1" as="geometry">
            <mxPoint x="120" y="1120" as="sourcePoint" />
            <mxPoint x="120" y="800" as="targetPoint" />
          </mxGeometry>
        </mxCell>
        <mxCell id="cYkkiroFD4x7zm8JULmi-43" value="" style="endArrow=none;html=1;rounded=0;" parent="1" edge="1">
          <mxGeometry width="50" height="50" relative="1" as="geometry">
            <mxPoint x="240" y="1120" as="sourcePoint" />
            <mxPoint x="240" y="800" as="targetPoint" />
          </mxGeometry>
        </mxCell>
        <mxCell id="cYkkiroFD4x7zm8JULmi-44" value="" style="endArrow=none;html=1;rounded=0;" parent="1" edge="1">
          <mxGeometry width="50" height="50" relative="1" as="geometry">
            <mxPoint x="360" y="1120" as="sourcePoint" />
            <mxPoint x="360" y="800" as="targetPoint" />
          </mxGeometry>
        </mxCell>
        <mxCell id="cYkkiroFD4x7zm8JULmi-45" value="" style="endArrow=classic;html=1;rounded=0;" parent="1" edge="1">
          <mxGeometry width="50" height="50" relative="1" as="geometry">
            <mxPoint x="120" y="840" as="sourcePoint" />
            <mxPoint x="240" y="840" as="targetPoint" />
          </mxGeometry>
        </mxCell>
        <mxCell id="cYkkiroFD4x7zm8JULmi-46" value="1. login" style="text;html=1;align=center;verticalAlign=middle;resizable=0;points=[];autosize=1;strokeColor=none;fillColor=none;" parent="1" vertex="1">
          <mxGeometry x="140" y="808" width="60" height="30" as="geometry" />
        </mxCell>
        <mxCell id="cYkkiroFD4x7zm8JULmi-47" value="" style="endArrow=classic;html=1;rounded=0;" parent="1" edge="1">
          <mxGeometry width="50" height="50" relative="1" as="geometry">
            <mxPoint x="240" y="880" as="sourcePoint" />
            <mxPoint x="360" y="880" as="targetPoint" />
          </mxGeometry>
        </mxCell>
        <mxCell id="cYkkiroFD4x7zm8JULmi-48" value="2. submit" style="text;html=1;align=center;verticalAlign=middle;resizable=0;points=[];autosize=1;strokeColor=none;fillColor=none;" parent="1" vertex="1">
          <mxGeometry x="260" y="850" width="70" height="30" as="geometry" />
        </mxCell>
        <mxCell id="cYkkiroFD4x7zm8JULmi-49" value="" style="endArrow=none;html=1;rounded=0;" parent="1" edge="1">
          <mxGeometry width="50" height="50" relative="1" as="geometry">
            <mxPoint x="480" y="1120" as="sourcePoint" />
            <mxPoint x="479.5" y="800" as="targetPoint" />
          </mxGeometry>
        </mxCell>
        <mxCell id="cYkkiroFD4x7zm8JULmi-50" value="" style="endArrow=classic;html=1;rounded=0;" parent="1" edge="1">
          <mxGeometry width="50" height="50" relative="1" as="geometry">
            <mxPoint x="360" y="920" as="sourcePoint" />
            <mxPoint x="480" y="920" as="targetPoint" />
          </mxGeometry>
        </mxCell>
        <mxCell id="cYkkiroFD4x7zm8JULmi-51" value="3. add" style="text;html=1;align=center;verticalAlign=middle;resizable=0;points=[];autosize=1;strokeColor=none;fillColor=none;" parent="1" vertex="1">
          <mxGeometry x="390" y="890" width="60" height="30" as="geometry" />
        </mxCell>
        <mxCell id="cYkkiroFD4x7zm8JULmi-52" value="replace *&lt;br&gt;&lt;div&gt;controller&lt;/div&gt;" style="ellipse;shape=umlControl;whiteSpace=wrap;html=1;" parent="1" vertex="1">
          <mxGeometry x="560" y="700" width="80" height="90" as="geometry" />
        </mxCell>
        <mxCell id="cYkkiroFD4x7zm8JULmi-53" value="" style="endArrow=none;html=1;rounded=0;" parent="1" edge="1">
          <mxGeometry width="50" height="50" relative="1" as="geometry">
            <mxPoint x="600" y="1120" as="sourcePoint" />
            <mxPoint x="599.5" y="800" as="targetPoint" />
          </mxGeometry>
        </mxCell>
        <mxCell id="cYkkiroFD4x7zm8JULmi-54" value="" style="endArrow=classic;html=1;rounded=0;" parent="1" edge="1">
          <mxGeometry width="50" height="50" relative="1" as="geometry">
            <mxPoint x="480" y="960" as="sourcePoint" />
            <mxPoint x="600" y="960" as="targetPoint" />
          </mxGeometry>
        </mxCell>
        <mxCell id="cYkkiroFD4x7zm8JULmi-55" value="4. replace" style="text;html=1;align=center;verticalAlign=middle;resizable=0;points=[];autosize=1;strokeColor=none;fillColor=none;" parent="1" vertex="1">
          <mxGeometry x="500" y="930" width="80" height="30" as="geometry" />
        </mxCell>
        <mxCell id="cYkkiroFD4x7zm8JULmi-56" value="count length of the word&lt;br&gt;&lt;div&gt;controller&lt;/div&gt;" style="ellipse;shape=umlControl;whiteSpace=wrap;html=1;" parent="1" vertex="1">
          <mxGeometry x="680" y="700" width="80" height="90" as="geometry" />
        </mxCell>
        <mxCell id="cYkkiroFD4x7zm8JULmi-57" value="" style="endArrow=none;html=1;rounded=0;" parent="1" edge="1">
          <mxGeometry width="50" height="50" relative="1" as="geometry">
            <mxPoint x="720" y="1120" as="sourcePoint" />
            <mxPoint x="719.5" y="799" as="targetPoint" />
          </mxGeometry>
        </mxCell>
        <mxCell id="cYkkiroFD4x7zm8JULmi-58" value="" style="endArrow=classic;html=1;rounded=0;" parent="1" edge="1">
          <mxGeometry width="50" height="50" relative="1" as="geometry">
            <mxPoint x="360" y="1000" as="sourcePoint" />
            <mxPoint x="720" y="1000" as="targetPoint" />
          </mxGeometry>
        </mxCell>
        <mxCell id="cYkkiroFD4x7zm8JULmi-59" value="5. count" style="text;html=1;align=center;verticalAlign=middle;resizable=0;points=[];autosize=1;strokeColor=none;fillColor=none;" parent="1" vertex="1">
          <mxGeometry x="390" y="968" width="70" height="30" as="geometry" />
        </mxCell>
        <mxCell id="cYkkiroFD4x7zm8JULmi-60" value="" style="endArrow=none;html=1;rounded=0;" parent="1" edge="1">
          <mxGeometry width="50" height="50" relative="1" as="geometry">
            <mxPoint x="840" y="1120" as="sourcePoint" />
            <mxPoint x="839.5" y="800" as="targetPoint" />
          </mxGeometry>
        </mxCell>
        <mxCell id="cYkkiroFD4x7zm8JULmi-61" value="" style="endArrow=classic;html=1;rounded=0;" parent="1" edge="1">
          <mxGeometry width="50" height="50" relative="1" as="geometry">
            <mxPoint x="720" y="1040" as="sourcePoint" />
            <mxPoint x="840" y="1040" as="targetPoint" />
          </mxGeometry>
        </mxCell>
        <mxCell id="cYkkiroFD4x7zm8JULmi-62" value="6. charge" style="text;html=1;align=center;verticalAlign=middle;resizable=0;points=[];autosize=1;strokeColor=none;fillColor=none;" parent="1" vertex="1">
          <mxGeometry x="740" y="1010" width="70" height="30" as="geometry" />
        </mxCell>
        <mxCell id="cYkkiroFD4x7zm8JULmi-63" value="" style="endArrow=classic;html=1;rounded=0;" parent="1" edge="1">
          <mxGeometry width="50" height="50" relative="1" as="geometry">
            <mxPoint x="840" y="1080" as="sourcePoint" />
            <mxPoint x="120" y="1080" as="targetPoint" />
          </mxGeometry>
        </mxCell>
        <mxCell id="cYkkiroFD4x7zm8JULmi-64" value="7. deduct" style="text;html=1;align=center;verticalAlign=middle;resizable=0;points=[];autosize=1;strokeColor=none;fillColor=none;" parent="1" vertex="1">
          <mxGeometry x="740" y="1048" width="70" height="30" as="geometry" />
        </mxCell>
        <mxCell id="cYkkiroFD4x7zm8JULmi-65" value="token DB" style="ellipse;shape=umlEntity;whiteSpace=wrap;html=1;" parent="1" vertex="1">
          <mxGeometry x="800" y="710" width="80" height="80" as="geometry" />
        </mxCell>
        <mxCell id="cYkkiroFD4x7zm8JULmi-66" value="&lt;font style=&quot;font-size: 22px;&quot;&gt;&lt;b&gt;Blacklist Managemen&lt;/b&gt;&lt;/font&gt;" style="text;html=1;align=center;verticalAlign=middle;resizable=0;points=[];autosize=1;strokeColor=none;fillColor=none;" parent="1" vertex="1">
          <mxGeometry x="40" y="640" width="250" height="40" as="geometry" />
        </mxCell>
        <mxCell id="cYkkiroFD4x7zm8JULmi-67" value="free/paid user" style="shape=umlActor;verticalLabelPosition=bottom;verticalAlign=top;html=1;" parent="1" vertex="1">
          <mxGeometry x="100" y="70" width="30" height="60" as="geometry" />
        </mxCell>
        <mxCell id="cYkkiroFD4x7zm8JULmi-68" value="user interface" style="shape=umlBoundary;whiteSpace=wrap;html=1;" parent="1" vertex="1">
          <mxGeometry x="180" y="65" width="100" height="80" as="geometry" />
        </mxCell>
        <mxCell id="cYkkiroFD4x7zm8JULmi-70" value="3. upload file" style="text;html=1;align=center;verticalAlign=middle;resizable=0;points=[];autosize=1;strokeColor=none;fillColor=none;" parent="1" vertex="1">
          <mxGeometry x="255" y="250" width="90" height="30" as="geometry" />
        </mxCell>
        <mxCell id="cYkkiroFD4x7zm8JULmi-71" value="" style="endArrow=classic;html=1;rounded=0;" parent="1" edge="1">
          <mxGeometry width="50" height="50" relative="1" as="geometry">
            <mxPoint x="360" y="320" as="sourcePoint" />
            <mxPoint x="480" y="320" as="targetPoint" />
          </mxGeometry>
        </mxCell>
        <mxCell id="cYkkiroFD4x7zm8JULmi-72" value="6. check free user if #words &amp;gt; 20" style="text;html=1;align=center;verticalAlign=middle;resizable=0;points=[];autosize=1;strokeColor=none;fillColor=none;" parent="1" vertex="1">
          <mxGeometry x="405" y="370" width="200" height="30" as="geometry" />
        </mxCell>
        <mxCell id="cYkkiroFD4x7zm8JULmi-73" value="" style="endArrow=classic;html=1;rounded=0;exitX=0.97;exitY=1.033;exitDx=0;exitDy=0;exitPerimeter=0;" parent="1" source="cYkkiroFD4x7zm8JULmi-72" edge="1">
          <mxGeometry width="50" height="50" relative="1" as="geometry">
            <mxPoint x="280" y="250" as="sourcePoint" />
            <mxPoint x="480" y="400" as="targetPoint" />
          </mxGeometry>
        </mxCell>
        <mxCell id="cYkkiroFD4x7zm8JULmi-76" value="" style="endArrow=classic;html=1;rounded=0;" parent="1" edge="1">
          <mxGeometry width="50" height="50" relative="1" as="geometry">
            <mxPoint x="480" y="480" as="sourcePoint" />
            <mxPoint x="240" y="480" as="targetPoint" />
          </mxGeometry>
        </mxCell>
        <mxCell id="cYkkiroFD4x7zm8JULmi-77" value="8. fail" style="text;html=1;align=center;verticalAlign=middle;resizable=0;points=[];autosize=1;strokeColor=none;fillColor=none;" parent="1" vertex="1">
          <mxGeometry x="380" y="450" width="50" height="30" as="geometry" />
        </mxCell>
        <mxCell id="cYkkiroFD4x7zm8JULmi-78" value="" style="endArrow=classic;html=1;rounded=0;" parent="1" edge="1">
          <mxGeometry width="50" height="50" relative="1" as="geometry">
            <mxPoint x="240" y="520" as="sourcePoint" />
            <mxPoint x="120" y="520" as="targetPoint" />
          </mxGeometry>
        </mxCell>
        <mxCell id="cYkkiroFD4x7zm8JULmi-79" value="9. free user cannot login within 3 mins" style="text;html=1;align=center;verticalAlign=middle;resizable=0;points=[];autosize=1;strokeColor=none;fillColor=none;" parent="1" vertex="1">
          <mxGeometry x="120" y="490" width="220" height="30" as="geometry" />
        </mxCell>
        <mxCell id="cYkkiroFD4x7zm8JULmi-80" value="" style="endArrow=classic;html=1;rounded=0;" parent="1" edge="1">
          <mxGeometry width="50" height="50" relative="1" as="geometry">
            <mxPoint x="720" y="560" as="sourcePoint" />
            <mxPoint x="120" y="560" as="targetPoint" />
          </mxGeometry>
        </mxCell>
        <mxCell id="cYkkiroFD4x7zm8JULmi-81" value="10. paid user will be deducted&lt;span style=&quot;white-space-collapse: preserve;&quot; data-slate-fragment=&quot;JTVCJTdCJTIydHlwZSUyMiUzQSUyMnBhcmFncmFwaCUyMiUyQyUyMmNoaWxkcmVuJTIyJTNBJTVCJTdCJTIydGV4dCUyMiUzQSUyMnJlY2VpdmVkJTIwYSUyMHBlbmFsdHklMjB3aXRoJTIwaGFsZiUyMG9mJTIwdGhlJTIwYXZhaWxhYmxlJTIwdG9rZW5zJTIwZGVkdWN0ZWQlMjIlN0QlNUQlN0QlNUQ=&quot;&gt; half tokens&lt;/span&gt;" style="text;html=1;align=center;verticalAlign=middle;resizable=0;points=[];autosize=1;strokeColor=none;fillColor=none;" parent="1" vertex="1">
          <mxGeometry x="480" y="528" width="240" height="30" as="geometry" />
        </mxCell>
        <mxCell id="zMJko9xKw-n6YX9dihh8-1" value="inviter&lt;div&gt;(paid user)&lt;/div&gt;" style="shape=umlActor;verticalLabelPosition=bottom;verticalAlign=top;html=1;" vertex="1" parent="1">
          <mxGeometry x="100" y="1980" width="30" height="60" as="geometry" />
        </mxCell>
        <mxCell id="zMJko9xKw-n6YX9dihh8-4" value="text DB" style="ellipse;shape=umlEntity;whiteSpace=wrap;html=1;" vertex="1" parent="1">
          <mxGeometry x="440" y="1985" width="80" height="80" as="geometry" />
        </mxCell>
        <mxCell id="zMJko9xKw-n6YX9dihh8-5" value="" style="line;strokeWidth=1;fillColor=none;align=left;verticalAlign=middle;spacingTop=-1;spacingLeft=3;spacingRight=3;rotatable=0;labelPosition=right;points=[];portConstraint=eastwest;strokeColor=inherit;" vertex="1" parent="1">
          <mxGeometry x="40" y="2075" width="760" height="8" as="geometry" />
        </mxCell>
        <mxCell id="zMJko9xKw-n6YX9dihh8-6" value="" style="endArrow=none;html=1;rounded=0;" edge="1" parent="1">
          <mxGeometry width="50" height="50" relative="1" as="geometry">
            <mxPoint x="120" y="2440" as="sourcePoint" />
            <mxPoint x="120" y="2080" as="targetPoint" />
          </mxGeometry>
        </mxCell>
        <mxCell id="zMJko9xKw-n6YX9dihh8-7" value="" style="endArrow=none;html=1;rounded=0;" edge="1" parent="1">
          <mxGeometry width="50" height="50" relative="1" as="geometry">
            <mxPoint x="240" y="2440" as="sourcePoint" />
            <mxPoint x="240" y="2080" as="targetPoint" />
          </mxGeometry>
        </mxCell>
        <mxCell id="zMJko9xKw-n6YX9dihh8-8" value="" style="endArrow=none;html=1;rounded=0;" edge="1" parent="1">
          <mxGeometry width="50" height="50" relative="1" as="geometry">
            <mxPoint x="360" y="2440" as="sourcePoint" />
            <mxPoint x="360" y="2080" as="targetPoint" />
          </mxGeometry>
        </mxCell>
        <mxCell id="zMJko9xKw-n6YX9dihh8-9" value="" style="endArrow=classic;html=1;rounded=0;" edge="1" parent="1">
          <mxGeometry width="50" height="50" relative="1" as="geometry">
            <mxPoint x="120" y="2120" as="sourcePoint" />
            <mxPoint x="360" y="2120" as="targetPoint" />
          </mxGeometry>
        </mxCell>
        <mxCell id="zMJko9xKw-n6YX9dihh8-10" value="1. login" style="text;html=1;align=center;verticalAlign=middle;resizable=0;points=[];autosize=1;strokeColor=none;fillColor=none;" vertex="1" parent="1">
          <mxGeometry x="140" y="2088" width="60" height="30" as="geometry" />
        </mxCell>
        <mxCell id="zMJko9xKw-n6YX9dihh8-11" value="" style="endArrow=classic;html=1;rounded=0;" edge="1" parent="1">
          <mxGeometry width="50" height="50" relative="1" as="geometry">
            <mxPoint x="240" y="2160" as="sourcePoint" />
            <mxPoint x="360" y="2160" as="targetPoint" />
          </mxGeometry>
        </mxCell>
        <mxCell id="zMJko9xKw-n6YX9dihh8-12" value="2. login" style="text;html=1;align=center;verticalAlign=middle;resizable=0;points=[];autosize=1;strokeColor=none;fillColor=none;" vertex="1" parent="1">
          <mxGeometry x="265" y="2130" width="60" height="30" as="geometry" />
        </mxCell>
        <mxCell id="zMJko9xKw-n6YX9dihh8-13" value="" style="endArrow=none;html=1;rounded=0;" edge="1" parent="1">
          <mxGeometry width="50" height="50" relative="1" as="geometry">
            <mxPoint x="480" y="2440" as="sourcePoint" />
            <mxPoint x="479.5" y="2080" as="targetPoint" />
          </mxGeometry>
        </mxCell>
        <mxCell id="zMJko9xKw-n6YX9dihh8-14" value="" style="endArrow=classic;html=1;rounded=0;" edge="1" parent="1">
          <mxGeometry width="50" height="50" relative="1" as="geometry">
            <mxPoint x="120" y="2200" as="sourcePoint" />
            <mxPoint x="480" y="2200" as="targetPoint" />
          </mxGeometry>
        </mxCell>
        <mxCell id="zMJko9xKw-n6YX9dihh8-15" value="3. share" style="text;html=1;align=center;verticalAlign=middle;resizable=0;points=[];autosize=1;strokeColor=none;fillColor=none;" vertex="1" parent="1">
          <mxGeometry x="135" y="2170" width="70" height="30" as="geometry" />
        </mxCell>
        <mxCell id="zMJko9xKw-n6YX9dihh8-17" value="" style="endArrow=none;html=1;rounded=0;" edge="1" parent="1">
          <mxGeometry width="50" height="50" relative="1" as="geometry">
            <mxPoint x="600" y="2440" as="sourcePoint" />
            <mxPoint x="599.5" y="2080" as="targetPoint" />
          </mxGeometry>
        </mxCell>
        <mxCell id="zMJko9xKw-n6YX9dihh8-18" value="" style="endArrow=classic;html=1;rounded=0;" edge="1" parent="1">
          <mxGeometry width="50" height="50" relative="1" as="geometry">
            <mxPoint x="240" y="2280" as="sourcePoint" />
            <mxPoint x="600" y="2280" as="targetPoint" />
          </mxGeometry>
        </mxCell>
        <mxCell id="zMJko9xKw-n6YX9dihh8-19" value="5. accept" style="text;html=1;align=center;verticalAlign=middle;resizable=0;points=[];autosize=1;strokeColor=none;fillColor=none;" vertex="1" parent="1">
          <mxGeometry x="265" y="2250" width="70" height="30" as="geometry" />
        </mxCell>
        <mxCell id="zMJko9xKw-n6YX9dihh8-20" value="&lt;div&gt;control invitation&lt;/div&gt;" style="ellipse;shape=umlControl;whiteSpace=wrap;html=1;" vertex="1" parent="1">
          <mxGeometry x="560" y="1980" width="80" height="90" as="geometry" />
        </mxCell>
        <mxCell id="zMJko9xKw-n6YX9dihh8-21" value="" style="endArrow=none;html=1;rounded=0;" edge="1" parent="1">
          <mxGeometry width="50" height="50" relative="1" as="geometry">
            <mxPoint x="720" y="2440" as="sourcePoint" />
            <mxPoint x="719.5" y="2079" as="targetPoint" />
          </mxGeometry>
        </mxCell>
        <mxCell id="zMJko9xKw-n6YX9dihh8-23" value="6. collaborate" style="text;html=1;align=center;verticalAlign=middle;resizable=0;points=[];autosize=1;strokeColor=none;fillColor=none;" vertex="1" parent="1">
          <mxGeometry x="260" y="2290" width="100" height="30" as="geometry" />
        </mxCell>
        <mxCell id="zMJko9xKw-n6YX9dihh8-25" value="" style="endArrow=classic;html=1;rounded=0;" edge="1" parent="1">
          <mxGeometry width="50" height="50" relative="1" as="geometry">
            <mxPoint x="240" y="2360" as="sourcePoint" />
            <mxPoint x="600" y="2360" as="targetPoint" />
          </mxGeometry>
        </mxCell>
        <mxCell id="zMJko9xKw-n6YX9dihh8-26" value="7. reject" style="text;html=1;align=center;verticalAlign=middle;resizable=0;points=[];autosize=1;strokeColor=none;fillColor=none;" vertex="1" parent="1">
          <mxGeometry x="260" y="2330" width="70" height="30" as="geometry" />
        </mxCell>
        <mxCell id="zMJko9xKw-n6YX9dihh8-27" value="" style="endArrow=classic;html=1;rounded=0;" edge="1" parent="1">
          <mxGeometry width="50" height="50" relative="1" as="geometry">
            <mxPoint x="720" y="2400" as="sourcePoint" />
            <mxPoint x="120" y="2400" as="targetPoint" />
          </mxGeometry>
        </mxCell>
        <mxCell id="zMJko9xKw-n6YX9dihh8-28" value="8. charge 3 tokens" style="text;html=1;align=center;verticalAlign=middle;resizable=0;points=[];autosize=1;strokeColor=none;fillColor=none;" vertex="1" parent="1">
          <mxGeometry x="600" y="2370" width="120" height="30" as="geometry" />
        </mxCell>
        <mxCell id="zMJko9xKw-n6YX9dihh8-29" value="token DB" style="ellipse;shape=umlEntity;whiteSpace=wrap;html=1;" vertex="1" parent="1">
          <mxGeometry x="680" y="1985" width="80" height="80" as="geometry" />
        </mxCell>
        <mxCell id="zMJko9xKw-n6YX9dihh8-30" value="&lt;font style=&quot;font-size: 22px;&quot;&gt;&lt;b&gt;Collaboration&lt;/b&gt;&lt;/font&gt;" style="text;html=1;align=center;verticalAlign=middle;resizable=0;points=[];autosize=1;strokeColor=none;fillColor=none;" vertex="1" parent="1">
          <mxGeometry x="40" y="1920" width="170" height="40" as="geometry" />
        </mxCell>
        <mxCell id="zMJko9xKw-n6YX9dihh8-32" value="invitee&lt;div&gt;(paid user)&lt;/div&gt;" style="shape=umlActor;verticalLabelPosition=bottom;verticalAlign=top;html=1;" vertex="1" parent="1">
          <mxGeometry x="225" y="1980" width="30" height="60" as="geometry" />
        </mxCell>
        <mxCell id="zMJko9xKw-n6YX9dihh8-33" value="user interface" style="shape=umlBoundary;whiteSpace=wrap;html=1;" vertex="1" parent="1">
          <mxGeometry x="300" y="1985" width="100" height="80" as="geometry" />
        </mxCell>
        <mxCell id="zMJko9xKw-n6YX9dihh8-34" value="" style="endArrow=classic;html=1;rounded=0;" edge="1" parent="1">
          <mxGeometry width="50" height="50" relative="1" as="geometry">
            <mxPoint x="240" y="2320" as="sourcePoint" />
            <mxPoint x="480" y="2320" as="targetPoint" />
          </mxGeometry>
        </mxCell>
        <mxCell id="zMJko9xKw-n6YX9dihh8-35" value="" style="endArrow=classic;html=1;rounded=0;" edge="1" parent="1">
          <mxGeometry width="50" height="50" relative="1" as="geometry">
            <mxPoint x="120" y="2240" as="sourcePoint" />
            <mxPoint x="240" y="2240" as="targetPoint" />
          </mxGeometry>
        </mxCell>
        <mxCell id="zMJko9xKw-n6YX9dihh8-36" value="4. invite" style="text;html=1;align=center;verticalAlign=middle;resizable=0;points=[];autosize=1;strokeColor=none;fillColor=none;" vertex="1" parent="1">
          <mxGeometry x="140" y="2208" width="60" height="30" as="geometry" />
        </mxCell>
        <mxCell id="zMJko9xKw-n6YX9dihh8-38" value="complaint DB" style="ellipse;shape=umlEntity;whiteSpace=wrap;html=1;" vertex="1" parent="1">
          <mxGeometry x="440" y="2985" width="80" height="80" as="geometry" />
        </mxCell>
        <mxCell id="zMJko9xKw-n6YX9dihh8-39" value="" style="line;strokeWidth=1;fillColor=none;align=left;verticalAlign=middle;spacingTop=-1;spacingLeft=3;spacingRight=3;rotatable=0;labelPosition=right;points=[];portConstraint=eastwest;strokeColor=inherit;" vertex="1" parent="1">
          <mxGeometry x="40" y="3075" width="760" height="8" as="geometry" />
        </mxCell>
        <mxCell id="zMJko9xKw-n6YX9dihh8-40" value="" style="endArrow=none;html=1;rounded=0;" edge="1" parent="1">
          <mxGeometry width="50" height="50" relative="1" as="geometry">
            <mxPoint x="120" y="3480" as="sourcePoint" />
            <mxPoint x="120" y="3080" as="targetPoint" />
          </mxGeometry>
        </mxCell>
        <mxCell id="zMJko9xKw-n6YX9dihh8-41" value="" style="endArrow=none;html=1;rounded=0;" edge="1" parent="1">
          <mxGeometry width="50" height="50" relative="1" as="geometry">
            <mxPoint x="240" y="3480" as="sourcePoint" />
            <mxPoint x="240" y="3080" as="targetPoint" />
          </mxGeometry>
        </mxCell>
        <mxCell id="zMJko9xKw-n6YX9dihh8-42" value="" style="endArrow=none;html=1;rounded=0;" edge="1" parent="1">
          <mxGeometry width="50" height="50" relative="1" as="geometry">
            <mxPoint x="360" y="3480" as="sourcePoint" />
            <mxPoint x="360" y="3080" as="targetPoint" />
          </mxGeometry>
        </mxCell>
        <mxCell id="zMJko9xKw-n6YX9dihh8-43" value="" style="endArrow=classic;html=1;rounded=0;" edge="1" parent="1">
          <mxGeometry width="50" height="50" relative="1" as="geometry">
            <mxPoint x="120" y="3120" as="sourcePoint" />
            <mxPoint x="240" y="3120" as="targetPoint" />
          </mxGeometry>
        </mxCell>
        <mxCell id="zMJko9xKw-n6YX9dihh8-44" value="1. complain" style="text;html=1;align=center;verticalAlign=middle;resizable=0;points=[];autosize=1;strokeColor=none;fillColor=none;" vertex="1" parent="1">
          <mxGeometry x="130" y="3088" width="80" height="30" as="geometry" />
        </mxCell>
        <mxCell id="zMJko9xKw-n6YX9dihh8-45" value="" style="endArrow=classic;html=1;rounded=0;" edge="1" parent="1">
          <mxGeometry width="50" height="50" relative="1" as="geometry">
            <mxPoint x="120" y="3160" as="sourcePoint" />
            <mxPoint x="360" y="3160" as="targetPoint" />
          </mxGeometry>
        </mxCell>
        <mxCell id="zMJko9xKw-n6YX9dihh8-46" value="2. submit" style="text;html=1;align=center;verticalAlign=middle;resizable=0;points=[];autosize=1;strokeColor=none;fillColor=none;" vertex="1" parent="1">
          <mxGeometry x="130" y="3130" width="70" height="30" as="geometry" />
        </mxCell>
        <mxCell id="zMJko9xKw-n6YX9dihh8-47" value="" style="endArrow=none;html=1;rounded=0;" edge="1" parent="1">
          <mxGeometry width="50" height="50" relative="1" as="geometry">
            <mxPoint x="480" y="3480" as="sourcePoint" />
            <mxPoint x="479.5" y="3080" as="targetPoint" />
          </mxGeometry>
        </mxCell>
        <mxCell id="zMJko9xKw-n6YX9dihh8-48" value="" style="endArrow=classic;html=1;rounded=0;" edge="1" parent="1">
          <mxGeometry width="50" height="50" relative="1" as="geometry">
            <mxPoint x="600" y="3240" as="sourcePoint" />
            <mxPoint x="480" y="3240" as="targetPoint" />
          </mxGeometry>
        </mxCell>
        <mxCell id="zMJko9xKw-n6YX9dihh8-49" value="4. review" style="text;html=1;align=center;verticalAlign=middle;resizable=0;points=[];autosize=1;strokeColor=none;fillColor=none;" vertex="1" parent="1">
          <mxGeometry x="510" y="3208" width="70" height="30" as="geometry" />
        </mxCell>
        <mxCell id="zMJko9xKw-n6YX9dihh8-50" value="" style="endArrow=none;html=1;rounded=0;" edge="1" parent="1">
          <mxGeometry width="50" height="50" relative="1" as="geometry">
            <mxPoint x="600" y="3480" as="sourcePoint" />
            <mxPoint x="599.5" y="3080" as="targetPoint" />
          </mxGeometry>
        </mxCell>
        <mxCell id="zMJko9xKw-n6YX9dihh8-51" value="" style="endArrow=classic;html=1;rounded=0;" edge="1" parent="1">
          <mxGeometry width="50" height="50" relative="1" as="geometry">
            <mxPoint x="720" y="3440" as="sourcePoint" />
            <mxPoint x="240" y="3440" as="targetPoint" />
          </mxGeometry>
        </mxCell>
        <mxCell id="zMJko9xKw-n6YX9dihh8-52" value="9. deduct" style="text;html=1;align=center;verticalAlign=middle;resizable=0;points=[];autosize=1;strokeColor=none;fillColor=none;" vertex="1" parent="1">
          <mxGeometry x="630" y="3410" width="70" height="30" as="geometry" />
        </mxCell>
        <mxCell id="zMJko9xKw-n6YX9dihh8-54" value="" style="endArrow=none;html=1;rounded=0;" edge="1" parent="1">
          <mxGeometry width="50" height="50" relative="1" as="geometry">
            <mxPoint x="720" y="3480" as="sourcePoint" />
            <mxPoint x="719.5" y="3079" as="targetPoint" />
          </mxGeometry>
        </mxCell>
        <mxCell id="zMJko9xKw-n6YX9dihh8-55" value="6. see dispute" style="text;html=1;align=center;verticalAlign=middle;resizable=0;points=[];autosize=1;strokeColor=none;fillColor=none;" vertex="1" parent="1">
          <mxGeometry x="255" y="3290" width="100" height="30" as="geometry" />
        </mxCell>
        <mxCell id="zMJko9xKw-n6YX9dihh8-56" value="" style="endArrow=classic;html=1;rounded=0;" edge="1" parent="1">
          <mxGeometry width="50" height="50" relative="1" as="geometry">
            <mxPoint x="240" y="3360" as="sourcePoint" />
            <mxPoint x="480" y="3360" as="targetPoint" />
          </mxGeometry>
        </mxCell>
        <mxCell id="zMJko9xKw-n6YX9dihh8-57" value="7. response" style="text;html=1;align=center;verticalAlign=middle;resizable=0;points=[];autosize=1;strokeColor=none;fillColor=none;" vertex="1" parent="1">
          <mxGeometry x="250" y="3330" width="90" height="30" as="geometry" />
        </mxCell>
        <mxCell id="zMJko9xKw-n6YX9dihh8-58" value="" style="endArrow=classic;html=1;rounded=0;" edge="1" parent="1">
          <mxGeometry width="50" height="50" relative="1" as="geometry">
            <mxPoint x="600" y="3400" as="sourcePoint" />
            <mxPoint x="240" y="3400" as="targetPoint" />
          </mxGeometry>
        </mxCell>
        <mxCell id="zMJko9xKw-n6YX9dihh8-60" value="token DB" style="ellipse;shape=umlEntity;whiteSpace=wrap;html=1;" vertex="1" parent="1">
          <mxGeometry x="680" y="2985" width="80" height="80" as="geometry" />
        </mxCell>
        <mxCell id="zMJko9xKw-n6YX9dihh8-61" value="&lt;font style=&quot;font-size: 22px;&quot;&gt;&lt;b&gt;Complaint Handling&lt;/b&gt;&lt;/font&gt;" style="text;html=1;align=center;verticalAlign=middle;resizable=0;points=[];autosize=1;strokeColor=none;fillColor=none;" vertex="1" parent="1">
          <mxGeometry x="40" y="2920" width="230" height="40" as="geometry" />
        </mxCell>
        <mxCell id="zMJko9xKw-n6YX9dihh8-64" value="" style="endArrow=classic;html=1;rounded=0;" edge="1" parent="1">
          <mxGeometry width="50" height="50" relative="1" as="geometry">
            <mxPoint x="240" y="3320" as="sourcePoint" />
            <mxPoint x="480" y="3320" as="targetPoint" />
          </mxGeometry>
        </mxCell>
        <mxCell id="zMJko9xKw-n6YX9dihh8-65" value="" style="endArrow=classic;html=1;rounded=0;" edge="1" parent="1">
          <mxGeometry width="50" height="50" relative="1" as="geometry">
            <mxPoint x="600" y="3280" as="sourcePoint" />
            <mxPoint x="240" y="3280" as="targetPoint" />
          </mxGeometry>
        </mxCell>
        <mxCell id="zMJko9xKw-n6YX9dihh8-66" value="5. notify" style="text;html=1;align=center;verticalAlign=middle;resizable=0;points=[];autosize=1;strokeColor=none;fillColor=none;" vertex="1" parent="1">
          <mxGeometry x="510" y="3250" width="70" height="30" as="geometry" />
        </mxCell>
        <mxCell id="zMJko9xKw-n6YX9dihh8-67" value="paid user" style="shape=umlActor;verticalLabelPosition=bottom;verticalAlign=top;html=1;" vertex="1" parent="1">
          <mxGeometry x="110" y="2990" width="30" height="60" as="geometry" />
        </mxCell>
        <mxCell id="zMJko9xKw-n6YX9dihh8-68" value="collaborator" style="shape=umlActor;verticalLabelPosition=bottom;verticalAlign=top;html=1;" vertex="1" parent="1">
          <mxGeometry x="225" y="2990" width="30" height="60" as="geometry" />
        </mxCell>
        <mxCell id="zMJko9xKw-n6YX9dihh8-69" value="super user" style="shape=umlActor;verticalLabelPosition=bottom;verticalAlign=top;html=1;" vertex="1" parent="1">
          <mxGeometry x="580" y="2995" width="30" height="60" as="geometry" />
        </mxCell>
        <mxCell id="zMJko9xKw-n6YX9dihh8-70" value="" style="endArrow=classic;html=1;rounded=0;" edge="1" parent="1">
          <mxGeometry width="50" height="50" relative="1" as="geometry">
            <mxPoint x="360" y="3200" as="sourcePoint" />
            <mxPoint x="480" y="3200" as="targetPoint" />
          </mxGeometry>
        </mxCell>
        <mxCell id="zMJko9xKw-n6YX9dihh8-71" value="3. store" style="text;html=1;align=center;verticalAlign=middle;resizable=0;points=[];autosize=1;strokeColor=none;fillColor=none;" vertex="1" parent="1">
          <mxGeometry x="395" y="3168" width="60" height="30" as="geometry" />
        </mxCell>
        <mxCell id="zMJko9xKw-n6YX9dihh8-72" value="complaint I/O" style="shape=umlBoundary;whiteSpace=wrap;html=1;" vertex="1" parent="1">
          <mxGeometry x="300" y="2985" width="100" height="80" as="geometry" />
        </mxCell>
        <mxCell id="zMJko9xKw-n6YX9dihh8-73" value="8. punish" style="text;html=1;align=center;verticalAlign=middle;resizable=0;points=[];autosize=1;strokeColor=none;fillColor=none;" vertex="1" parent="1">
          <mxGeometry x="515" y="3370" width="70" height="30" as="geometry" />
        </mxCell>
        <mxCell id="zMJko9xKw-n6YX9dihh8-75" value="LLM control" style="ellipse;shape=umlControl;whiteSpace=wrap;html=1;" vertex="1" parent="1">
          <mxGeometry x="320" y="2535" width="80" height="90" as="geometry" />
        </mxCell>
        <mxCell id="zMJko9xKw-n6YX9dihh8-76" value="" style="line;strokeWidth=1;fillColor=none;align=left;verticalAlign=middle;spacingTop=-1;spacingLeft=3;spacingRight=3;rotatable=0;labelPosition=right;points=[];portConstraint=eastwest;strokeColor=inherit;" vertex="1" parent="1">
          <mxGeometry x="40" y="2635" width="760" height="8" as="geometry" />
        </mxCell>
        <mxCell id="zMJko9xKw-n6YX9dihh8-77" value="" style="endArrow=none;html=1;rounded=0;" edge="1" parent="1">
          <mxGeometry width="50" height="50" relative="1" as="geometry">
            <mxPoint x="120" y="2880" as="sourcePoint" />
            <mxPoint x="120" y="2640" as="targetPoint" />
          </mxGeometry>
        </mxCell>
        <mxCell id="zMJko9xKw-n6YX9dihh8-78" value="" style="endArrow=none;html=1;rounded=0;" edge="1" parent="1">
          <mxGeometry width="50" height="50" relative="1" as="geometry">
            <mxPoint x="240" y="2880" as="sourcePoint" />
            <mxPoint x="240" y="2640" as="targetPoint" />
          </mxGeometry>
        </mxCell>
        <mxCell id="zMJko9xKw-n6YX9dihh8-79" value="1. type or upload" style="text;html=1;align=center;verticalAlign=middle;resizable=0;points=[];autosize=1;strokeColor=none;fillColor=none;" vertex="1" parent="1">
          <mxGeometry x="120" y="2650" width="110" height="30" as="geometry" />
        </mxCell>
        <mxCell id="zMJko9xKw-n6YX9dihh8-80" value="" style="endArrow=classic;html=1;rounded=0;" edge="1" parent="1">
          <mxGeometry width="50" height="50" relative="1" as="geometry">
            <mxPoint x="120" y="2680" as="sourcePoint" />
            <mxPoint x="240" y="2680" as="targetPoint" />
          </mxGeometry>
        </mxCell>
        <mxCell id="zMJko9xKw-n6YX9dihh8-81" value="" style="endArrow=none;html=1;rounded=0;" edge="1" parent="1">
          <mxGeometry width="50" height="50" relative="1" as="geometry">
            <mxPoint x="360" y="2880" as="sourcePoint" />
            <mxPoint x="359.5" y="2640" as="targetPoint" />
          </mxGeometry>
        </mxCell>
        <mxCell id="zMJko9xKw-n6YX9dihh8-83" value="2. submit" style="text;html=1;align=center;verticalAlign=middle;resizable=0;points=[];autosize=1;strokeColor=none;fillColor=none;" vertex="1" parent="1">
          <mxGeometry x="265" y="2690" width="70" height="30" as="geometry" />
        </mxCell>
        <mxCell id="zMJko9xKw-n6YX9dihh8-84" value="" style="endArrow=none;html=1;rounded=0;" edge="1" parent="1">
          <mxGeometry width="50" height="50" relative="1" as="geometry">
            <mxPoint x="480" y="2880" as="sourcePoint" />
            <mxPoint x="479.5" y="2640" as="targetPoint" />
          </mxGeometry>
        </mxCell>
        <mxCell id="zMJko9xKw-n6YX9dihh8-85" value="" style="endArrow=classic;html=1;rounded=0;" edge="1" parent="1">
          <mxGeometry width="50" height="50" relative="1" as="geometry">
            <mxPoint x="240" y="2720" as="sourcePoint" />
            <mxPoint x="360" y="2720" as="targetPoint" />
          </mxGeometry>
        </mxCell>
        <mxCell id="zMJko9xKw-n6YX9dihh8-86" value="3. check if error-free &amp;gt; 10 words" style="text;html=1;align=center;verticalAlign=middle;resizable=0;points=[];autosize=1;strokeColor=none;fillColor=none;" vertex="1" parent="1">
          <mxGeometry x="355" y="2730" width="190" height="30" as="geometry" />
        </mxCell>
        <mxCell id="zMJko9xKw-n6YX9dihh8-88" value="" style="endArrow=none;html=1;rounded=0;" edge="1" parent="1">
          <mxGeometry width="50" height="50" relative="1" as="geometry">
            <mxPoint x="600" y="2880" as="sourcePoint" />
            <mxPoint x="599.5" y="2639" as="targetPoint" />
          </mxGeometry>
        </mxCell>
        <mxCell id="zMJko9xKw-n6YX9dihh8-89" value="" style="endArrow=classic;html=1;rounded=0;" edge="1" parent="1">
          <mxGeometry width="50" height="50" relative="1" as="geometry">
            <mxPoint x="600" y="2800" as="sourcePoint" />
            <mxPoint x="720" y="2800" as="targetPoint" />
          </mxGeometry>
        </mxCell>
        <mxCell id="zMJko9xKw-n6YX9dihh8-90" value="4. reward" style="text;html=1;align=center;verticalAlign=middle;resizable=0;points=[];autosize=1;strokeColor=none;fillColor=none;" vertex="1" parent="1">
          <mxGeometry x="610" y="2770" width="70" height="30" as="geometry" />
        </mxCell>
        <mxCell id="zMJko9xKw-n6YX9dihh8-91" value="" style="endArrow=none;html=1;rounded=0;" edge="1" parent="1">
          <mxGeometry width="50" height="50" relative="1" as="geometry">
            <mxPoint x="720" y="2880" as="sourcePoint" />
            <mxPoint x="719.5" y="2640" as="targetPoint" />
          </mxGeometry>
        </mxCell>
        <mxCell id="zMJko9xKw-n6YX9dihh8-94" value="text DB" style="ellipse;shape=umlEntity;whiteSpace=wrap;html=1;" vertex="1" parent="1">
          <mxGeometry x="435" y="2545" width="80" height="80" as="geometry" />
        </mxCell>
        <mxCell id="zMJko9xKw-n6YX9dihh8-95" value="user" style="shape=umlActor;verticalLabelPosition=bottom;verticalAlign=top;html=1;" vertex="1" parent="1">
          <mxGeometry x="100" y="2550" width="30" height="60" as="geometry" />
        </mxCell>
        <mxCell id="zMJko9xKw-n6YX9dihh8-96" value="user I/O" style="shape=umlBoundary;whiteSpace=wrap;html=1;" vertex="1" parent="1">
          <mxGeometry x="180" y="2545" width="100" height="80" as="geometry" />
        </mxCell>
        <mxCell id="zMJko9xKw-n6YX9dihh8-98" value="" style="endArrow=classic;html=1;rounded=0;" edge="1" parent="1">
          <mxGeometry width="50" height="50" relative="1" as="geometry">
            <mxPoint x="360" y="2760" as="sourcePoint" />
            <mxPoint x="480" y="2760" as="targetPoint" />
          </mxGeometry>
        </mxCell>
        <mxCell id="zMJko9xKw-n6YX9dihh8-105" value="" style="endArrow=classic;html=1;rounded=0;" edge="1" parent="1">
          <mxGeometry width="50" height="50" relative="1" as="geometry">
            <mxPoint x="720" y="2840" as="sourcePoint" />
            <mxPoint x="120" y="2840" as="targetPoint" />
          </mxGeometry>
        </mxCell>
        <mxCell id="zMJko9xKw-n6YX9dihh8-106" value="5. receive 3 bonus tokens" style="text;html=1;align=center;verticalAlign=middle;resizable=0;points=[];autosize=1;strokeColor=none;fillColor=none;" vertex="1" parent="1">
          <mxGeometry x="525" y="2810" width="160" height="30" as="geometry" />
        </mxCell>
        <mxCell id="zMJko9xKw-n6YX9dihh8-107" value="&lt;font style=&quot;font-size: 22px;&quot;&gt;&lt;b&gt;Bonus System&lt;/b&gt;&lt;/font&gt;" style="text;html=1;align=center;verticalAlign=middle;resizable=0;points=[];autosize=1;strokeColor=none;fillColor=none;" vertex="1" parent="1">
          <mxGeometry x="35" y="2480" width="180" height="40" as="geometry" />
        </mxCell>
        <mxCell id="zMJko9xKw-n6YX9dihh8-108" value="token control" style="ellipse;shape=umlControl;whiteSpace=wrap;html=1;" vertex="1" parent="1">
          <mxGeometry x="560" y="2535" width="80" height="90" as="geometry" />
        </mxCell>
        <mxCell id="zMJko9xKw-n6YX9dihh8-109" value="token DB" style="ellipse;shape=umlEntity;whiteSpace=wrap;html=1;" vertex="1" parent="1">
          <mxGeometry x="680" y="2545" width="80" height="80" as="geometry" />
        </mxCell>
      </root>
    </mxGraphModel>
  </diagram>
</mxfile>
